<svg width="28" height="28" viewBox="0 0 28 28" fill="none" xmlns="http://www.w3.org/2000/svg">
<path d="M16.4604 1.11928C16.4604 1.21673 16.8076 1.55782 17.2272 1.87454C17.6323 2.17909 17.8782 2.41054 17.7625 2.374C17.6468 2.33745 17.1549 2.16691 16.6774 1.99636C14.6664 1.27764 11.932 1.11928 10.0222 1.60655C9.63157 1.704 9.00945 1.85018 8.66222 1.92327C7.72181 2.13036 8.01117 2.16691 9.08179 1.98418C11.6137 1.52127 14.6085 1.98418 15.9396 3.01963C16.2434 3.26327 16.4604 3.51909 16.417 3.59218C16.3591 3.66527 15.8527 3.76272 15.274 3.79927C12.4673 4.03072 7.98223 5.09053 9.81965 5.09053C11.0205 5.09053 12.9881 5.68744 12.9881 6.06507C12.9881 6.1138 12.2502 6.57671 11.3677 7.07616C9.6605 8.02634 7.92436 9.26888 8.09797 9.41506C8.14138 9.45161 8.37286 9.41506 8.60435 9.31761C9.64603 8.86688 12.12 8.56234 12.12 8.87906C12.12 8.95215 11.932 9.22015 11.7005 9.46379C11.252 9.95106 10.8179 10.6089 10.8179 10.816C10.8179 11.1205 11.2809 11.0596 11.7583 10.7063C12.3371 10.28 12.8 10.1947 12.6264 10.5358C12.0911 11.6078 12.0043 12.1681 12.2937 12.7041C12.5396 13.167 12.8 13.0696 13.0604 12.3996C13.1907 12.0585 13.3787 11.7905 13.48 11.7905C13.5958 11.7905 13.8562 12.2047 14.0732 12.7163L14.4783 13.6421L14.16 14.105C13.5668 14.9943 13.8996 15.579 14.7532 15.1649C15.1583 14.9699 15.1728 14.9699 15.3174 15.2989C15.7659 16.2734 15.8093 17.7961 15.4332 18.8316C15.2885 19.2214 15.1294 19.2945 14.2902 19.3676C13.9864 19.4041 13.9285 19.4772 13.8851 19.867C13.8417 20.2568 13.8851 20.3299 14.2323 20.4396L14.6085 20.5614L14.0009 20.9634C13.017 21.5846 12.8145 21.6577 12.0043 21.6577H11.252L11.2809 22.0476L11.3243 22.4374L10.2392 22.5836C9.64603 22.6688 9.08179 22.7419 8.98051 22.7419C8.87924 22.7541 8.76349 22.547 8.70562 22.2912C8.57541 21.6577 8.24265 21.2192 7.70734 20.9756C7.2299 20.7685 6.76693 20.805 6.76693 21.0608C6.76693 21.1339 7.05629 21.4506 7.41798 21.7552C8.02563 22.279 8.24265 22.6323 7.93883 22.6323C7.72181 22.6323 7.34564 22.2668 7.34564 22.0719C7.34564 21.8161 7.08522 21.8648 6.98395 22.145C6.94054 22.279 6.79587 22.3886 6.66565 22.3886C6.30396 22.3886 5.66737 21.7065 5.49376 21.1461C5.40695 20.8537 5.18993 20.1837 5.03079 19.6356C4.85717 19.0996 4.56782 18.4418 4.36527 18.1738L4.01804 17.6987L4.10484 18.6976C4.20612 19.6721 4.19165 19.7087 3.88783 19.7087C3.64187 19.7087 3.584 19.7817 3.584 20.1228C3.584 20.7319 3.38145 20.7441 2.80274 20.1837C1.90573 19.2945 1.32702 17.9301 1.1534 16.249C1.05213 15.177 0.864044 15.5547 0.849576 16.9068C0.835108 18.1494 1.09553 18.8925 2.16615 20.6832C2.93295 21.9623 3.23677 22.3399 4.16272 23.1195C6.44864 25.0321 9.38561 25.9335 12.7422 25.7508C14.377 25.6534 15.1149 25.5072 16.5617 24.9468C18.645 24.1306 20.1352 22.6566 20.9599 20.5614C21.3505 19.5747 21.4229 19.2336 21.4084 18.2468C21.4084 16.3343 20.4825 14.3609 18.5582 12.095C18.1097 11.5712 17.777 11.1205 17.8204 11.0961C17.8638 11.0596 18.5293 11.3276 19.2961 11.6809C20.5693 12.2778 20.7863 12.424 21.5386 13.2767C23.2748 15.2501 24.0416 17.991 23.4773 20.2203C22.8118 22.8759 21.0322 24.9225 18.457 25.9701C14.5796 27.5659 10.543 27.4928 6.94054 25.7752C6.17375 25.4097 5.29121 24.8128 4.0325 23.7895C2.57125 22.6079 2.29636 22.4252 2.55678 22.815C3.07763 23.619 4.52441 25.0077 5.45035 25.6168C6.66565 26.3964 8.51754 27.2004 9.79071 27.4928C11.223 27.8217 13.6681 28.0288 15.0136 27.9192C19.6867 27.5659 22.8986 25.3854 24.1573 21.7065C24.4467 20.8781 24.4901 20.4639 24.4901 18.795C24.4901 17.0896 24.4467 16.7363 24.1573 15.9445C23.7233 14.7872 22.6816 13.033 22.2041 12.6676C22.0016 12.5092 21.7701 12.229 21.6833 12.0585C21.5965 11.8758 21.2927 11.5956 21.0178 11.4372C20.685 11.2423 20.5114 11.0596 20.5114 10.8647C20.5114 10.7063 20.5693 10.5723 20.6416 10.5723C20.7139 10.5723 21.148 10.816 21.611 11.1205C22.0595 11.4251 22.5514 11.6687 22.6671 11.6687C22.7973 11.6687 22.9854 11.7783 23.0867 11.9123C23.3037 12.2047 23.9113 12.229 24.0416 11.9611C24.1284 11.7661 24.1573 11.7661 24.3888 11.9611C24.6926 12.1803 25.0832 12.2169 25.2134 12.0341C25.3437 11.8636 25.9079 11.8758 26.1249 12.0585C26.2696 12.1803 26.3853 12.1316 26.6892 11.8758C27.0219 11.5956 27.0943 11.4251 27.1377 10.7063C27.1811 10.0972 27.2534 9.87797 27.3692 9.91451C27.7164 10.0241 27.9334 9.63433 27.8177 9.08615C27.7743 8.79379 27.7309 8.24561 27.7453 7.85579C27.7453 7.42943 27.6585 6.99089 27.5138 6.72289C27.2389 6.23562 26.2551 5.5169 25.5896 5.32199C25.3003 5.23671 25.0398 5.02962 24.8662 4.73726C24.4032 3.99417 23.7233 3.27545 23.0867 2.89781C22.2909 2.41054 22.1463 2.43491 22.6671 2.98309C23.1301 3.48254 24.056 5.07835 23.9258 5.17581C23.8824 5.21235 23.5641 5.02962 23.2024 4.77381C22.8552 4.50581 22.0161 4.03072 21.3505 3.68963C20.6995 3.36072 19.7735 2.80036 19.3106 2.44709C18.6016 1.89891 16.851 0.948731 16.5617 0.948731C16.5038 0.948731 16.4604 1.02182 16.4604 1.11928ZM20.3667 3.95763C21.365 4.4449 21.9003 4.88344 22.8552 6.01635C23.376 6.62544 23.8101 6.99089 24.1862 7.16143C24.5045 7.29543 24.7939 7.36852 24.8373 7.34416C24.8807 7.30761 24.6203 7.02743 24.273 6.73507C23.9258 6.43053 23.6799 6.18689 23.7377 6.18689C24.0126 6.18689 24.953 6.58889 25.5896 6.97871C26.1973 7.34416 26.2985 7.36852 26.2985 7.17362C26.2985 7.0518 26.096 6.71071 25.8356 6.41835L25.3726 5.88235L25.8645 6.19907C26.747 6.75944 26.9351 7.08834 26.993 8.06288L27.0509 8.95215L26.3275 9.20797C25.4449 9.5247 25.416 9.5247 24.4177 9.24452C23.3471 8.93997 22.8407 8.69634 22.5803 8.37961C22.4646 8.23343 22.1607 8.01416 21.9003 7.88016C21.365 7.59998 21.611 7.57561 22.3488 7.83143C22.9999 8.06288 23.0722 8.01416 22.6237 7.66089C22.3488 7.44161 22.0016 7.35634 21.0612 7.25889C20.3957 7.19798 19.6289 7.10052 19.354 7.03962C18.7463 6.90562 17.8348 6.16253 17.9506 5.89453C18.0808 5.61435 18.9055 5.54126 19.8893 5.73617C21.0178 5.96762 21.0033 5.73617 19.8459 5.26108C19.2238 5.00526 18.9633 4.95653 18.4714 5.02962C17.8782 5.1149 17.1838 5.54126 17.1838 5.82144C17.1838 5.89453 17.4876 6.23562 17.8782 6.57671L18.5582 7.19798L17.8782 6.86907C17.2851 6.57671 17.1838 6.56453 17.1838 6.73507C17.1838 7.11271 17.6178 7.7218 18.0229 7.9167C18.2978 8.0507 18.6306 8.08725 19.1804 8.0507C19.5855 8.01416 19.9327 8.02634 19.9327 8.07507C19.9327 8.12379 19.6433 8.41616 19.2816 8.7207C18.9199 9.02524 18.6306 9.31761 18.6306 9.37852C18.6306 9.56124 17.4153 9.47597 16.9089 9.2567C16.634 9.14706 16.2868 8.8547 16.1276 8.62325L15.8527 8.19688L15.954 8.68415C16.0119 8.93997 16.1421 9.31761 16.2723 9.51252C16.5472 9.97542 16.4025 10.0607 15.8817 9.73179C15.4621 9.47597 15.4476 9.47597 15.4476 9.70742C15.4476 9.84142 15.6647 10.1581 15.9251 10.414C16.2434 10.7185 16.3012 10.8403 16.1276 10.7794C15.983 10.7307 15.7659 10.6941 15.6502 10.6941C15.3608 10.6941 14.0298 9.64651 13.9141 9.32979C13.7694 8.91561 13.5668 9.32979 13.5668 10.0607C13.5668 10.4992 13.509 10.6941 13.3932 10.6698C13.2919 10.6332 13.2485 10.28 13.263 9.58561C13.2919 8.5867 13.3064 8.55016 13.9719 7.7218C14.3481 7.25889 14.9268 6.63762 15.2596 6.33307C15.6068 6.02853 15.8672 5.77271 15.8383 5.76053C15.6502 5.62653 13.8706 5.15144 13.1328 5.04181L12.1924 4.88344L13.0604 4.79817C13.5379 4.76163 14.5651 4.63981 15.3319 4.54235C17.8638 4.21345 19.2382 4.34745 20.1642 5.01744C20.8297 5.49253 21.365 5.74835 21.4952 5.65089C21.6399 5.5169 20.3522 4.50581 19.1804 3.79927C18.5582 3.43381 18.0519 3.11709 18.0519 3.08054C18.0519 2.99527 19.5565 3.55563 20.3667 3.95763ZM14.5217 6.58889C14.1889 6.86907 13.7404 7.40507 13.5234 7.77052C13.0604 8.52579 12.5685 9.1227 12.5541 8.90343C12.5541 8.83034 12.6843 8.56234 12.8579 8.33088C13.1907 7.84361 13.1039 7.59998 12.6409 7.68525C12.4817 7.7218 12.1056 7.7827 11.8307 7.83143C11.3388 7.90452 11.3388 7.89234 11.6137 7.70961C11.7728 7.59998 12.366 7.3198 12.9158 7.10052C13.48 6.86907 14.16 6.55235 14.4349 6.3818C15.1728 5.94326 15.1872 5.99198 14.5217 6.58889ZM21.6688 9.29324C21.6688 9.57342 21.7701 9.7927 21.9582 9.9267C22.2475 10.1338 22.3488 10.4505 22.1463 10.4505C22.0739 10.4383 21.8569 10.2434 21.6399 9.99979C21.2493 9.57342 21.119 9.1227 21.3361 8.95215C21.5531 8.76943 21.6688 8.89124 21.6688 9.29324ZM22.9709 9.9876C23.1879 10.2191 23.2748 10.2434 23.4194 10.1094C23.7088 9.87797 24.0705 9.93888 24.3164 10.2312C24.5045 10.4627 24.5769 10.4749 24.6781 10.3409C24.7649 10.2312 24.9675 10.1947 25.2279 10.2434C25.4449 10.28 25.7922 10.2556 25.9947 10.1947C26.4577 10.0363 26.6458 10.2069 26.5156 10.6941L26.4143 11.084L26.0236 10.7672L25.6185 10.4505L25.4594 10.7551C25.2713 11.0961 24.7939 11.1692 24.5913 10.8647C24.4756 10.6941 24.4467 10.6941 24.2875 10.8647C24.0271 11.1327 23.7377 11.1083 23.5496 10.8038C23.3905 10.5601 23.376 10.5601 23.1011 10.7672C22.7684 11.0231 22.5658 10.9012 22.5369 10.3896C22.479 9.63433 22.5514 9.56124 22.9709 9.9876ZM15.737 11.9367C16.0553 12.3387 16.3157 12.7529 16.3157 12.8381C16.3157 12.9234 16.5183 13.1914 16.7498 13.4229C16.9957 13.6543 17.2851 14.105 17.4008 14.4339C17.5021 14.7507 17.7336 15.3354 17.8927 15.7252C18.6306 17.4307 18.3846 19.3067 17.1983 21.1948C16.4749 22.3156 16.4315 22.3643 15.8817 22.4374C15.4187 22.4983 15.2306 22.6079 14.9268 22.9977C14.5506 23.4606 14.5362 23.4728 13.8417 23.3997C13.2196 23.3388 13.0604 23.3632 12.7277 23.619C12.366 23.887 12.2213 23.9114 11.0349 23.8992C9.53029 23.8748 8.06904 23.6799 7.46139 23.4119C6.91161 23.1683 6.99842 23.083 7.64947 23.2414C8.51754 23.4606 10.3984 23.3875 11.4111 23.1074C13.4945 22.5348 14.7821 21.5725 15.8672 19.7817C16.4604 18.8072 16.5183 18.6367 16.5761 17.6256C16.6629 16.2369 16.4893 15.5669 15.52 13.2645C15.0859 12.229 14.7243 11.3398 14.7243 11.2789C14.7243 11.2301 14.8255 11.1814 14.9413 11.1814C15.0715 11.1814 15.4187 11.5225 15.737 11.9367ZM17.2851 11.8514C17.5889 12.0707 17.8059 12.2778 17.7625 12.3143C17.7191 12.3509 17.4008 12.3509 17.0391 12.3143C16.5038 12.2656 16.3447 12.1925 16.2 11.9367C16.1132 11.7661 16.0264 11.5591 16.0264 11.4738C16.0264 11.2301 16.7208 11.4372 17.2851 11.8514ZM17.7336 12.5945C18.0519 12.6676 18.7318 13.569 18.5727 13.703C18.3702 13.8736 17.5021 13.5812 17.2127 13.2523C16.6629 12.631 16.8366 12.3996 17.7336 12.5945ZM18.6016 14.0441C18.9489 14.105 19.1514 14.2512 19.4263 14.641C19.6289 14.9334 19.788 15.2014 19.788 15.2379C19.788 15.3719 18.7897 15.3354 18.4714 15.2014C18.1965 15.0674 17.8927 14.641 17.6902 14.1294C17.6034 13.8858 17.6323 13.8492 17.8638 13.898C18.0085 13.9345 18.3412 13.9954 18.6016 14.0441ZM19.4697 15.6278C19.8314 15.6887 19.9906 15.8105 20.1497 16.1272C20.3957 16.6267 20.5837 17.3941 20.4535 17.3941C20.4101 17.3941 20.0629 17.2723 19.7012 17.1383C18.9489 16.8338 18.6595 16.517 18.5293 15.8714C18.457 15.4694 18.4714 15.4207 18.7174 15.4816C18.8621 15.5181 19.2093 15.579 19.4697 15.6278ZM20.4246 17.8692C20.6416 18.0276 20.6705 18.1738 20.6127 18.7219C20.4969 19.5868 20.3667 19.6721 19.8025 19.2701C19.1948 18.8437 18.7753 18.125 18.7753 17.5159V17.0165L19.4697 17.3454C19.8459 17.5281 20.2654 17.7596 20.4246 17.8692ZM19.2093 19.2457C19.9182 19.9157 20.1352 20.403 19.9471 20.9268C19.8603 21.1705 19.6578 21.475 19.4986 21.5968C19.2238 21.8039 19.1948 21.8039 18.9199 21.5968C18.4136 21.207 18.2833 20.6223 18.4859 19.6843C18.5872 19.2336 18.7029 18.8559 18.7318 18.8559C18.7608 18.8559 18.9778 19.0387 19.2093 19.2457ZM4.50994 20.9877C4.64015 21.3532 4.78483 21.743 4.8427 21.8648C4.90058 22.011 4.78483 21.9745 4.48101 21.7308C4.10484 21.4263 4.01804 21.2801 4.01804 20.8416C4.01804 20.1228 4.23505 20.1837 4.50994 20.9877ZM18.3267 21.5237C18.7897 22.4374 18.7318 22.6688 17.9651 23.1926C17.314 23.6434 17.2851 23.6555 17.0825 23.4241C16.9523 23.2657 16.8944 23.0221 16.9378 22.7419C17.0102 22.2668 17.7191 20.9268 17.8927 20.9268C17.9651 20.9268 18.1531 21.1948 18.3267 21.5237ZM16.417 23.4119C16.634 23.9723 16.5472 24.0941 15.7515 24.3255C15.0136 24.5326 14.8689 24.4961 14.8689 24.1185C14.8689 23.5946 15.5779 22.8516 16.0119 22.9125C16.1276 22.9246 16.3012 23.1561 16.417 23.4119ZM7.20097 23.753C7.72181 23.9601 8.50307 24.155 8.93711 24.2037C9.55923 24.2646 9.74731 24.3255 9.77624 24.5083C9.83412 24.7154 9.76178 24.7275 9.06732 24.6788C8.64775 24.6423 8.27159 24.5448 8.24265 24.4717C8.21372 24.3986 8.09797 24.3377 7.98223 24.3377C7.70734 24.3377 6.36183 23.7652 5.89886 23.4485L5.53716 23.217L5.89886 23.3023C6.10141 23.351 6.68012 23.5581 7.20097 23.753ZM14.1455 23.9601C14.4204 24.3986 14.3192 24.6666 13.8417 24.8128C13.3643 24.959 12.5541 24.9955 12.5541 24.8859C12.5541 24.691 13.0315 24.0819 13.3064 23.9235C13.7404 23.6677 13.9575 23.6799 14.1455 23.9601ZM11.6571 24.289C11.8741 24.3377 11.9754 24.4595 11.9754 24.6666C11.9754 24.9468 11.932 24.959 11.223 24.9225C10.6154 24.8981 10.4418 24.8372 10.4128 24.6545C10.326 24.2768 10.8758 24.1185 11.6571 24.289Z" fill="black"/>
</svg>
